<?xml version="1.0" encoding="utf-8"?>
<!-- Generator: Adobe Illustrator 16.0.0, SVG Export Plug-In . SVG Version: 6.00 Build 0)  -->
<!DOCTYPE svg PUBLIC "-//W3C//DTD SVG 1.1//EN" "http://www.w3.org/Graphics/SVG/1.1/DTD/svg11.dtd">
<svg version="1.1" id="Calque_1" xmlns="http://www.w3.org/2000/svg" xmlns:xlink="http://www.w3.org/1999/xlink" x="0px" y="0px"
	 width="595.281px" height="841.891px" viewBox="0 0 595.281 841.891" enable-background="new 0 0 595.281 841.891"
	 xml:space="preserve">
<g>
	<path fill="#FFFFFF" stroke="#FFFFFF" stroke-miterlimit="10" d="M300.441,266.718h0.076
		C300.517,266.718,300.487,266.718,300.441,266.718z"/>
	<path fill="#FFFFFF" stroke="#FFFFFF" stroke-miterlimit="10" d="M294.167,266.718h0.076
		C294.198,266.718,294.167,266.718,294.167,266.718z"/>
	<path fill="#FFFFFF" stroke="#FFFFFF" stroke-miterlimit="10" d="M294.244,266.718c0.274,0,1.356,0.007,3.099,0.082
		c1.743-0.075,2.824-0.082,3.099-0.082H294.244z"/>
	<path fill="#FFFFFF" stroke="#FFFFFF" stroke-miterlimit="10" d="M415.406,564.26c-22.719,0-33.434-25.399-33.434-25.399
		c96.336-9.326,80.264-90.979,76.295-100.403c-3.969-9.326-20.041-16.073-26.986-16.47c-24.406,10.219-15.08,19.049-15.08,19.049
		c31.152-15.576,28.475,21.133,28.475,21.133s-5.457,33.038-44.945,33.038c-39.486,0-31.152-46.829-29.367-51.393
		c85.067-163.395-50.256-176.04-73.021-177.015c-22.765,0.976-158.088,13.621-73.021,177.015
		c1.786,4.563,10.12,51.393-29.367,51.393c-39.487,0-44.943-33.038-44.943-33.038s-2.778-36.709,28.474-21.133
		c0,0,9.326-8.83-15.081-19.049c-6.945,0.396-23.018,7.144-26.986,16.47c-3.969,9.326-20.041,90.979,76.295,100.403
		c0,0-10.715,25.399-33.435,25.399c-22.72,0-45.539-24.109-45.539-24.109s-8.037,38.793,44.15,49.508
		c52.186,10.715,119.453-66.771,119.453-66.771s67.267,77.485,119.452,66.771c52.188-10.715,44.15-49.508,44.15-49.508
		S438.226,564.26,415.406,564.26z M269.463,396.093c-7.507,0-13.592-8.484-13.592-18.95s6.085-18.95,13.592-18.95
		s13.592,8.484,13.592,18.95S276.97,396.093,269.463,396.093z M321.253,396.093c-7.508,0-13.592-8.484-13.592-18.95
		s6.084-18.95,13.592-18.95c7.506,0,13.592,8.484,13.592,18.95S328.759,396.093,321.253,396.093z"/>
</g>
</svg>
